<svg xmlns="http://www.w3.org/2000/svg" width="15.421" height="17.778" viewBox="0 0 15.421 17.778">
    <defs>
        <style>
            .cls-1{fill:#4a4a4a}
        </style>
    </defs>
    <g id="icon_copy" data-name="icon copy" transform="translate(-8.376 -7.111)">
        <path id="Shape" d="M7.679 17.778A3.475 3.475 0 0 1 5.2 16.733a.6.6 0 0 1 0-.831H1.229a1.225 1.225 0 0 1-1.179-.876A1.151 1.151 0 0 1 .562 13.7c.154-.143 1.5-1.526 1.5-5.856a6.4 6.4 0 0 1 1.552-4.029 5.8 5.8 0 0 1 1.892-1.488.617.617 0 0 1 0-.109 2.218 2.218 0 1 1 4.437 0 .614.614 0 0 1 0 .109 5.809 5.809 0 0 1 1.891 1.488 6.4 6.4 0 0 1 1.549 4.033c0 4.351 1.354 5.726 1.508 5.868a1.158 1.158 0 0 1 .472 1.335 1.227 1.227 0 0 1-1.181.876h-4.026a.6.6 0 0 1 0 .806 3.479 3.479 0 0 1-2.477 1.045zM6.094 15.91a2.248 2.248 0 0 0 1.59.665h.024a2.214 2.214 0 0 0 1.573-.665zM2.4 13.091A3.931 3.931 0 0 1 1.283 14.7h12.91a3.923 3.923 0 0 1-1.121-1.613zM7.736 3.009C5.2 3.009 3.3 5.564 3.3 7.848a15.3 15.3 0 0 1-.472 4.033h9.816a15.3 15.3 0 0 1-.472-4.033c0-2.284-1.897-4.839-4.436-4.839zm0-1.211a4.64 4.64 0 0 1 .944.1 1.111 1.111 0 0 0-.944-.7 1.111 1.111 0 0 0-.944.7 4.643 4.643 0 0 1 .944-.098z" class="cls-1" transform="translate(8.376 7.111)"/>
    </g>
</svg>
